<svg xmlns="http://www.w3.org/2000/svg" xmlns:xlink="http://www.w3.org/1999/xlink" viewBox="0 0 66 53" fill="#fff" fill-rule="evenodd" stroke="#000" stroke-linecap="round" stroke-linejoin="round"><use xlink:href="#A" x=".5" y=".5"/><symbol id="A" overflow="visible"><g stroke="none" fill-rule="nonzero"><path d="M40.728 14.228l2.05.035 5.57-5.57.27-2.36A24.93 24.93 0 0 0 31.993 0C20.453 0 10.713 7.852 7.83 18.488c.608-.424 1.908-.106 1.908-.106l11.13-1.83s.572-.947.862-.9A13.88 13.88 0 0 1 32 11.115c3.3.007 6.34 1.173 8.728 3.102z" fill="#ea4335"/><path d="M56.17 18.5c-1.293-4.77-3.958-8.982-7.555-12.177l-7.887 7.887c3.16 2.55 5.187 6.452 5.187 10.82v1.392c3.837 0 6.954 3.124 6.954 6.954 0 3.837-3.124 6.954-6.954 6.954H32.007l-1.392 1.4v8.346l1.392 1.385h13.908c9.982-.014 18.07-8.102 18.085-18.084-.007-6.155-3.1-11.6-7.83-14.876z" fill="#4285f4"/><path d="M18.085 51.48h13.9V40.34h-13.9a6.89 6.89 0 0 1-2.862-.622l-2.007.615-5.57 5.57-.488 1.88a18 18 0 0 0 10.926 3.689z" fill="#34a853"/><path d="M18.085 15.3C8.103 15.324.014 23.412 0 33.394c0 5.873 2.813 11.095 7.166 14.403l8.064-8.064a6.96 6.96 0 0 1-4.099-6.339c0-3.837 3.124-6.954 6.954-6.954 2.82 0 5.244 1.7 6.34 4.1l8.064-8.064c-3.307-4.353-8.53-7.166-14.403-7.166z" fill="#fbbc05"/></g></symbol></svg>